{"title":"Patang (2012) 720p WebRip x264 MSubs -DDR","uid":15834019,"size":1943436818,"categoryP":"video","categoryS":"hd___movies","magnet":"?xt=urn:btih:6a63f6e202b13ae799b331f66cb0fc908953487e&amp;dn=Patang+%282012%29+720p+WebRip+x264+MSubs+-DDR&amp;tr=udp%3A%2F%2Ftracker.leechers-paradise.org%3A6969&amp;tr=udp%3A%2F%2Fzer0day.ch%3A1337&amp;tr=udp%3A%2F%2Fopen.demonii.com%3A1337&amp;tr=udp%3A%2F%2Ftracker.coppersurfer.tk%3A6969&amp;tr=udp%3A%2F%2Fexodus.desync.com%3A6969","seeders":20,"leechers":21,"uploader":"SaM","files":3,"time":1473950955,"description":"720p WebRip x264\r\n\r\nHindi AAC 2.0 Audio\r\n\r\n\r\n\r\nEnglish &amp; French Subtitles\r\n\r\n\r\nAWARDS\r\nHawaii International Film Festival 2011\r\nWon\r\nHalekulani Golden Orchid Award Narrative Feature\r\nPrashant Bhargava\r\n\r\nTribeca Film Festival 2011\r\nNominated\r\nJury Award Best Narrative Feature\r\nPrashant Bhargava\r\n \nhttp://extraimago.com/image/wIfU \nhttp://extraimago.com/image/wIfM \nhttp://extraimago.com/image/wIf9 \nhttp://extraimago.com/image/wIf3 \nhttp://extraimago.com/image/wIfb \nhttp://extraimago.com/image/wIfh \nhttp://extraimago.com/image/wIfd \nhttp://extraimago.com/image/wIfI \nhttp://extraimago.com/image/wIfl \nhttp://extraimago.com/image/wIfi \nhttp://extraimago.com/image/wIfm \nhttp://extraimago.com/image/wIfR \nhttp://extraimago.com/image/wIfQ \nhttp://extraimago.com/image/wIfL\r\n\r\nSpecs:\r\nSource: Netflix HD Rip @ DDR\r\n\r\nFormat : Matroska\r\nFormat version : Version 4 / Version 2\r\nFile size : 1.79 GiB\r\nDuration : 1 h 33 min\r\nOverall bit rate : 2 728 kb/s\r\nEncoded date : UTC 2016-09-15 05:00:10\r\nWriting application : mkvmerge v9.2.0 ('Photograph') 64bit\r\nWriting library : libebml v1.3.3 + libmatroska v1.4.4\r\n\r\nVideo\r\nID : 1\r\nFormat : AVC\r\nFormat/Info : Advanced Video Codec\r\nFormat profile :   \r\nFormat settings, CABAC : Yes\r\nFormat settings, ReFrames : 10 frames\r\nCodec ID : V_MPEG4/ISO/AVC\r\nDuration : 1 h 33 min\r\nBit rate : 2 504 kb/s\r\nWidth : 1 280 pixels\r\nHeight : 640 pixels\r\nDisplay aspect ratio : 2.000\r\nFrame rate mode : Constant\r\nFrame rate : 24.000 FPS\r\nColor space : YUV\r\nChroma subsampling : 4:2:0\r\nBit depth : 8 bits\r\nScan type : Progressive\r\nBits/(Pixel*Frame) : 0.127\r\nStream size : 1.64 GiB (92%)\r\nLanguage : English\r\nDefault : Yes\r\nForced : No\r\nColor range : Limited\r\nColor primaries : BT.709\r\nTransfer characteristics : BT.709\r\nMatrix coefficients : BT.709\r\n\r\nAudio\r\nID : 2\r\nFormat : AAC\r\nFormat/Info : Advanced Audio Codec\r\nFormat profile : LC\r\nCodec ID : A_AAC\r\nDuration : 1 h 33 min\r\nBit rate : 221 kb/s\r\nChannel(s) : 2 channels\r\nChannel positions : Front: L R\r\nSampling rate : 48.0 kHz\r\nFrame rate : 46.875 FPS (1024 spf)\r\nCompression mode : Lossy\r\nDelay relative to video : 6 ms\r\nStream size : 148 MiB (8%)\r\nLanguage : Hindi\r\nDefault : Yes\r\nForced : No","torrent":{"xt":"urn:btih:6a63f6e202b13ae799b331f66cb0fc908953487e","amp;dn":"Patang+%282012%29+720p+WebRip+x264+MSubs+-DDR","amp;tr":["udp%3A%2F%2Ftracker.leechers-paradise.org%3A6969","udp%3A%2F%2Fzer0day.ch%3A1337","udp%3A%2F%2Fopen.demonii.com%3A1337","udp%3A%2F%2Ftracker.coppersurfer.tk%3A6969","udp%3A%2F%2Fexodus.desync.com%3A6969"],"infoHash":"6a63f6e202b13ae799b331f66cb0fc908953487e","infoHashBuffer":{"type":"Buffer","data":[106,99,246,226,2,177,58,231,153,179,49,246,108,176,252,144,137,83,72,126]},"announce":[],"urlList":[]}}